<svg xmlns="http://www.w3.org/2000/svg" height="40" viewBox="0 96 960 960" width="40"><path d="M143.846 909.847 290.41 500.615l263.641 262.513-410.205 146.719Zm56.461-56.462L491.846 750 303.538 561.026 200.307 853.385ZM529.18 614.359l-22.821-22.82 219.795-219.796q28.154-27.641 69.667-27.974 41.513-.333 69.667 27.821l12.666 12.666-21.282 22.821-12.974-13.487Q824 373.692 796.744 373.615q-27.257-.077-47.308 19.975L529.18 614.359ZM397.025 483.333l-22.82-22.307 25.949-25.949q24.615-24.616 24.128-58.129-.487-33.512-24.128-57.153l-25.282-25.282 22.82-22.308 24.462 24.461q33.487 32.975 33.154 80.847-.334 47.872-33.308 80.846l-24.975 24.974Zm66.308 65.18-22.307-22.308 137.025-137.538q19.898-19.385 19.821-48.103-.077-28.718-19.974-48.616l-53.795-53.794 22.307-22.308 54.616 54.102q28.256 28.923 28.666 70.616.411 41.692-28.512 70.103L463.333 548.513Zm132 132.154-22.82-22.308 26.513-26.513q33.743-33.743 81.41-34.154 47.667-.41 81.41 33.334l27.641 27.641-22.307 22.82-28.308-28.307Q714 628.308 680.846 628.308t-58.538 24.872l-26.975 27.487ZM200.307 853.385Z"/></svg>