<svg xmlns="http://www.w3.org/2000/svg" height="40" viewBox="0 96 960 960" width="40"><path d="M480 942.154q-27.769 0-48.449-18.5-20.679-18.5-24.013-46.269h144.924q-3.334 27.769-24.013 46.269-20.68 18.5-48.449 18.5ZM339.179 799.641v-33.846h281.642v33.846H339.179Zm1.026-110.923q-55.718-37.974-87.962-93.59Q220 539.513 220 470.82q0-107.872 76.064-183.936Q372.128 210.82 480 210.82q107.872 0 183.936 76.064Q740 362.948 740 470.82q0 68.693-32.166 124.308-32.167 55.616-88.039 93.59h-279.59Zm10.872-33.846h258q45.974-32 71.526-80.128 25.551-48.129 25.551-103.924 0-94.102-66.026-160.128Q574.103 244.666 480 244.666q-94.103 0-160.128 66.026-66.026 66.026-66.026 160.128 0 55.795 25.551 103.924 25.552 48.128 71.68 80.128Zm128.923 0Z"/></svg>