<svg xmlns="http://www.w3.org/2000/svg" height="40" viewBox="0 96 960 960" width="40"><path d="M281.538 774.462H460q7.693 0 13.077-5.384 5.385-5.385 5.385-13.077v-35.385q0-7.692-5.385-13.077-5.384-5.385-13.077-5.385H281.538q-7.692 0-13.077 5.385-5.384 5.385-5.384 13.077v35.385q0 7.692 5.384 13.077 5.385 5.384 13.077 5.384Zm-6.923-301.539h186.154q5.385 0 10-4.637 4.616-4.638 4.616-10.052 0-5.413-4.616-9.978-4.615-4.564-10-4.564H274.615q-5.384 0-10 4.638Q260 452.967 260 458.381q0 5.414 4.615 9.978 4.616 4.564 10 4.564Zm0-84.615h186.154q5.385 0 10-4.638 4.616-4.637 4.616-10.051 0-5.414-4.616-9.978-4.615-4.564-10-4.564H274.615q-5.384 0-10 4.637Q260 368.352 260 373.766q0 5.413 4.615 9.978 4.616 4.564 10 4.564ZM600 503.693v-33.847h61.539q10.769 0 17.692-6.923t6.923-17.692v-58.462q0-10.769-6.923-17.692t-17.692-6.923H600v-33.847h61.539q23.718 0 41.09 17.372Q720 363.051 720 386.769v12.308h70.77q7.192 0 12.058 4.873 4.865 4.873 4.865 12.077 0 7.229-4.865 12.063-4.866 4.833-12.058 4.833H720v12.308q0 23.718-17.371 41.09-17.372 17.372-41.09 17.372H600ZM447.693 668.308h-33.847V534.462h127.693q10.769 0 17.692-6.923t6.923-17.692V322.153q0-10.769-6.923-17.692t-17.692-6.923H255.385q-36.039 0-61.097 25.058t-25.058 61.096v64.616q0 36.038 25.058 61.096t61.097 25.058h72.307v133.846h-33.846v-100h-38.461q-49.501 0-84.751-35.25-35.25-35.25-35.25-84.75v-64.616q0-49.5 35.25-84.75t84.751-35.25h286.154q23.718 0 41.089 17.372Q600 298.436 600 322.153v187.694q0 23.717-17.372 41.089-17.371 17.372-41.089 17.372h-93.846v100Zm-174.36 140q-18.376 0-31.239-12.863t-12.863-31.239v-52.308q0-18.162 12.863-30.876 12.863-12.714 31.239-12.714h195.385q18.163 0 30.876 12.714 12.714 12.714 12.714 30.876v52.308q0 18.376-12.714 31.239-12.713 12.863-30.876 12.863H273.333ZM367.692 416ZM460 774.462H263.077h215.385H460Z"/></svg>