<svg xmlns="http://www.w3.org/2000/svg" height="40" viewBox="0 96 960 960" width="40"><path d="M479.783 702.154q52.473 0 89.422-36.732 36.949-36.731 36.949-89.205 0-52.473-36.732-89.422-36.731-36.949-89.205-36.949t-89.422 36.732q-36.949 36.731-36.949 89.205 0 52.473 36.732 89.422 36.731 36.949 89.205 36.949ZM480 736q-66.846 0-113.423-46.577T320 576q0-66.846 46.577-113.423T480 416q66.846 0 113.423 46.577T640 576q0 66.846-46.577 113.423T480 736ZM76.923 592.923q-7.192 0-12.058-4.909Q60 583.104 60 575.847t4.865-12.014q4.866-4.756 12.058-4.756h106.154q7.192 0 12.058 4.909 4.865 4.91 4.865 12.167t-4.865 12.014q-4.866 4.756-12.058 4.756H76.923Zm700 0q-7.192 0-12.058-4.909-4.865-4.91-4.865-12.167t4.865-12.014q4.866-4.756 12.058-4.756h106.154q7.192 0 12.058 4.909 4.865 4.91 4.865 12.167t-4.865 12.014q-4.866 4.756-12.058 4.756H776.923ZM479.847 296q-7.257 0-12.014-4.865-4.756-4.866-4.756-12.058V172.923q0-7.192 4.909-12.058 4.91-4.865 12.167-4.865t12.014 4.865q4.756 4.866 4.756 12.058v106.154q0 7.192-4.909 12.058-4.91 4.865-12.167 4.865Zm0 700q-7.257 0-12.014-4.865-4.756-4.866-4.756-12.058V872.923q0-7.192 4.909-12.058 4.91-4.865 12.167-4.865t12.014 4.865q4.756 4.866 4.756 12.058v106.154q0 7.192-4.909 12.058-4.91 4.865-12.167 4.865Zm-221.18-618.769-61.821-60.052q-4.872-4.794-4.8-11.723.072-6.928 4.965-12.679 5.517-5.572 12.06-5.572 6.544 0 12.108 5.641L282 353.897q5.41 5.735 5.41 12.098 0 6.364-5.025 11.716-5.026 5.263-11.552 5.097-6.525-.167-12.166-5.577Zm480.154 481.923L678 798.103q-5.41-5.71-5.41-12.118T678.333 774q4.077-5.641 10.718-5.218 6.641.423 12.282 5.987l61.821 60.052q4.872 4.794 4.8 11.723-.072 6.928-4.965 12.679-5.517 5.572-12.06 5.572-6.544 0-12.108-5.641ZM678 378.385q-5.641-5.18-5.218-11.629.423-6.448 5.987-12.089l60.052-61.821q4.794-4.872 11.723-4.8 6.928.072 12.679 4.965 5.572 5.517 5.572 12.06 0 6.544-5.641 12.108L702.103 378q-5.488 5.41-11.907 5.41-6.42 0-12.196-5.025ZM196.777 859.39q-5.572-5.918-5.572-12.461 0-6.544 5.641-12.108L257.897 774q5.713-5.564 12.126-5.564 6.413 0 11.939 5.564 4.91 4.41 4.487 11.051-.423 6.641-5.218 12.282l-60.052 61.821q-5.564 5.641-12.108 5.569-6.543-.072-12.294-5.333ZM480 576Z"/></svg>