<svg xmlns="http://www.w3.org/2000/svg" height="40" viewBox="0 96 960 960" width="40"><path d="M692.308 1003.69q82.307 0 146.538-62.305 64.231-62.308 68.077-153.077h-35.385Q866.154 861 815.577 912.346 765 963.692 692.308 967.538v36.152ZM53.077 363.692h35.385Q93.846 291 144.423 239.654 195 188.308 267.692 184.462v-35.385q-88.461 3.846-149.615 65-61.154 61.154-65 149.615Zm149.461 509.77q-85.179-85.18-85.179-194.564 0-109.385 85.179-195.078l146.949-146.41q18.026-18.026 42.244-18.026t42.243 18.026q9.385 9.231 13.5 24.59 4.116 15.359-2.397 31.359l137.666-137.667q18.795-18.795 43.013-18.41 24.218.384 42.244 18.41 10.282 10.436 13.513 24t-.846 26.692l33.076-33.077q17.359-18.718 42.924-17.435 25.564 1.282 43.872 19.589 21.256 21.257 16.487 47.68-4.769 26.423-32.821 55.423 11.693-3.923 24.859-.538 13.167 3.384 25.244 15.974 18.026 18.026 18.026 42.244 0 24.217-18.026 42.243l-67.385 67.641q14.975-7.333 30.385-5.91 15.41 1.423 28.538 14.551 18.026 18.026 18.103 42.628.077 24.603-18.103 42.629L592.18 873.462q-85.693 85.179-195.078 85.179-109.384 0-194.564-85.179Zm24.103-24.103q37.538 37.539 81.41 56.359 43.872 18.821 89.308 18.821 45.436 0 89.308-18.821 43.871-18.82 81.41-56.359l233.436-233.667q8.513-8 8.513-18.487 0-10.487-8.513-18.333-8-8.513-18.41-8.513-10.411 0-18.411 8.513l-141 140.564-39.718-38.282 226-226q8.513-8 8.513-18.526t-8.513-18.526q-8-8.436-18.41-8.474-10.41-.038-18.41 8.474l-198 198-38.282-39.487 239.564-240.23q8.513-8 8.179-18.488-.333-10.487-8.179-18.333-8-8.513-18.41-8.513-10.411 0-18.411 8.513l-240.23 239.564-39.488-38.282 184.436-184q8-8 7.923-18.487-.076-10.487-7.923-18.334-8.436-8.512-18.961-8.512-10.526 0-18.526 8.512l-241.282 240.77q22.538 52.154 17.897 106.5-4.641 54.346-42.077 106.756l-34.871-34.436q28.641-45.82 28.897-95.769.256-49.949-32.744-98.077l107.206-107.974q7.743-8 7.795-18.487.051-10.488-7.795-17.565-8-8.512-18.411-8.474-10.41.038-18.41 8.474l-146.41 146.18q-37.539 37.538-56.359 81.41-18.821 43.872-18.821 89.308 0 45.436 18.821 89.308 18.82 43.872 56.359 81.41Z"/></svg>